Patient4_TMGait_0pt8_01_left_05_EMG.mot
version=1
nRows=33
nColumns=33
inDegrees=no
endheader
time	1LAddLong	2LGlutMax	3LGlutMed	4LIliopsoas	5LSemiMemb	6LBicFemLong	7LRecFem	8LVastMed	9LVastLat	10LGasMed	11LTibAnt	12lTibPost	13LPeroneusLong	14LSol	15LExtDigLong	16LFlexDigLong	17RAddLong	18RGlutMax	19RGlutMed	20RIliopsoas	21RSemiMemb	22RBicFemLong	23RRecFem	24RVastMed	25RVastLat	26RGasMed	27RTibAnt	28RTibPost	29RPeroneusLong	30RSol	31RExtDigLong	32RFlexDigLong
5.923	0.016174	0.31174	-0.083466	0.016327	0.023804	-0.084839	0.024719	0.012512	0.1976	-0.012207	0.000153	-0.008392	0.005341	-0.029602	-0.016937	-0.012512	0.00473	-0.35553	0.36423	-0.047607	-0.029755	0.007477	-0.1503	-0.063782	0.02533	-0.010986	-0.18036	-0.001221	0.56686	0.17822	-0.018158	-0.008698
5.924	0.0177	0.30258	-0.0737	0.002136	0.027161	-0.082092	0.018921	0.004883	0.19226	-0.016327	-0.018616	-0.001831	-0.037689	-0.028534	-0.023193	-0.003357	0.012207	-0.34393	0.28229	0.10574	-0.052948	0.02243	-0.23285	-0.040894	0.018616	-0.00946	-0.39459	-0.002899	0.027466	0.30792	-0.019989	-0.001678
5.925	0.016785	0.30182	-0.046234	0.009308	0.007629	-0.10727	0.003204	0.005493	0.19806	-0.01358	-0.006256	-0.009613	-0.023651	-0.013123	-0.029144	-0.012207	0.017548	-0.41763	1.14	0.057373	-0.0737	-0.035553	-0.09552	0.13001	0.015564	-0.000458	-0.33966	0.007629	0.62866	0.18646	-0.014954	-0.00473
5.926	0.012665	0.27817	-0.047455	0.005951	-0.01709	-0.13062	0.005493	0.006409	0.1944	-0.036316	-0.002594	-0.011902	0.012817	-0.019989	0.025635	-0.00824	0.015259	-0.42236	1.5334	0.042725	-0.044708	-0.074005	0.064545	0.16373	0.024719	0.00351	-0.091248	-0.004578	-0.61676	0.082855	-0.016327	-0.005188
5.927	0.00824	0.30151	-0.044403	0.013123	0.012817	-0.10712	0.026855	-0.00351	0.19287	-0.037994	-0.005035	-0.00473	0.025787	-0.027313	0.034027	-0.0177	0.023041	-0.41443	0.96069	0.14923	-0.016327	-0.11398	0.12146	0.069427	0.002594	-0.005035	-0.069885	-0.006409	-1.3522	0.17792	-0.018768	-0.017853
5.928	0.022736	0.30151	-0.059204	0.001221	-0.000458	-0.098877	0.019226	0.009918	0.18524	-0.081482	-0.005035	-0.003967	0.071564	-0.001984	0.019989	-0.006104	0.027618	-0.37659	0.10437	0.13016	0.000305	-0.05188	0.16785	-0.14694	-0.078125	-0.00885	-0.16235	-0.003967	-0.2623	0.27283	-0.019226	-0.018921
5.929	0.022278	0.30197	-0.079346	0.003815	-0.059204	-0.121	0.004272	0.008392	0.18677	-0.079498	0.000305	-0.003815	0.049438	-0.003052	0.005035	-0.02243	0.023651	-0.5011	-0.56442	0.036163	-0.035858	-0.016022	0.14801	-0.29022	-0.16312	-0.002136	0.034485	-0.002289	-0.4567	0.19196	-0.021667	-0.010223
5.93	0.030212	0.27878	-0.097961	0.002441	-0.084229	-0.13992	0.015106	0.001373	0.16708	-0.088196	0.002441	-0.005798	0.027771	-0.014954	-0.008698	-0.012512	-0.003815	-0.49972	-0.78003	0.001831	-0.11398	0.01358	0.1918	-0.21072	-0.18845	-0.007935	0.2298	-0.004272	1.2074	0.12329	-0.015564	-0.012207
5.931	0.031891	0.27176	-0.0737	0.020905	0.058441	-0.1059	0.00412	0.005951	0.15533	-0.096588	0.001526	-0.002899	0.00885	0.010986	-0.011902	-0.016479	-0.003357	-0.51971	-0.31387	0.031586	-0.07019	-0.016785	0.098419	-0.042267	-0.089874	0	0.36667	-0.001526	1.2915	0.020599	-0.011902	-0.003662
5.932	0.0177	0.26947	-0.046997	0.010376	0.10864	-0.098267	0.021973	0.006256	0.15991	-0.096436	-0.002747	-0.004425	0.032654	-0.054932	-0.016937	-0.006714	0.000305	-0.49439	0.6871	-0.016785	0.022125	-0.10712	-0.020447	0.019073	-0.094757	-0.010376	0.53741	-0.003204	0.37201	0.010986	-0.015869	-0.005646
5.933	0.026093	0.22568	0.001984	0.000305	0.082855	-0.066681	0.018463	0.011444	0.1532	-0.10071	0.004272	-0.009308	0.032043	-0.094757	-0.01236	-0.014648	-0.014343	-0.5777	1.2587	-0.013428	0.02655	-0.084534	-0.71487	0.04364	0.015259	-0.003967	0.30029	-0.002899	-0.24277	0.011139	-0.022583	-0.001831
5.934	0.016174	0.23254	0.007324	0.008392	0.050659	-0.063019	0.029297	0.005493	0.15182	-0.084839	-0.006256	-0.003204	0.016022	-0.064392	0.000153	-0.019989	-0.005188	-0.66238	0.71884	-0.021362	0.004425	-0.075836	-0.99991	0.055542	0.2153	0.006409	-0.32883	0.00061	0.31845	-0.054321	-0.020905	-0.00351
5.935	0.009155	0.22018	0.004272	-0.007172	0.002899	-0.084534	0.031128	0.004272	0.1413	-0.052185	-0.005646	0	0.005646	-0.014954	0.029144	-0.011292	0.016327	-0.68954	0.22476	-0.05249	-0.052795	-0.057526	-0.43182	0.16785	0.20294	0.005951	-0.42297	-0.005951	-0.66452	0.086365	-0.018311	0.003967
5.936	0.013885	0.20935	-0.029602	-0.002136	0.011902	-0.12924	0.015717	0.005951	0.14435	-0.028687	-0.014191	-0.006561	0.032196	-0.015717	0.05127	-0.014343	0.035095	-0.76035	0.02533	-0.067596	-0.066223	0.007629	-0.083466	0.12146	0.14282	0.002899	-0.45731	-0.002441	-0.48202	-0.18448	-0.021362	-0.001068
5.937	0.016785	0.19394	-0.061188	0.012054	-0.005798	-0.10361	0.02243	0.001221	0.14114	-0.008392	-0.006104	-0.006256	0.045471	0.056763	0.031433	-0.008698	0.032196	-0.75089	0.63034	-0.096893	-0.037079	0.017548	0.14984	0.041199	0.065002	0.003662	-0.23682	-0.002289	0.16602	-0.14343	-0.021515	-0.001678
5.938	0.009613	0.18478	-0.10498	0.011292	-0.004883	-0.080566	0.007172	0.007172	0.12909	0.023499	0.001373	-0.005188	0.049896	0.11078	-0.00061	-0.019226	0.011292	-0.77728	1.0973	-0.069122	-0.014954	0.005341	0.14496	-0.013885	0.018616	0.001526	-0.19318	-0.005035	-0.034332	0.09964	-0.018311	-0.007019
5.939	0.005646	0.21286	-0.090332	0.010834	-0.014038	-0.089569	0.021973	0.001221	0.13611	0.023804	0.007019	-0.003815	0.047607	0.016022	-0.029449	0	-0.029602	-0.82703	0.10132	-0.014191	-0.007629	0.028839	-0.006256	0.040894	0.014801	-0.010986	-0.053253	-0.00824	-0.16129	0.20401	-0.017395	-0.018311
5.94	0.018005	0.21423	-0.020599	-0.006714	0.065918	-0.11658	0.032654	0.004578	0.12116	0.019836	0.00885	-0.00412	0.046539	-0.061646	-0.029907	-0.003204	-0.029144	-0.80368	-0.13504	0.043488	-0.010681	0.02655	-0.19653	-0.052185	-0.049438	-0.009766	0.065613	-0.010529	-0.13412	0.15869	-0.016479	-0.012207
5.941	0.014648	0.22247	0.021973	0.00412	0.059814	-0.11231	0.011902	0.001678	0.11856	-0.001984	0.002747	-0.002899	0.079346	-0.051422	-0.026398	-0.011444	0.006866	-0.7988	-0.47058	0.042114	-0.031128	-0.010376	-0.19745	-0.12436	-0.2179	0.000763	0.14816	-0.003357	0.2095	0.075073	-0.018768	-0.013275
5.942	0.008545	0.20279	0.019684	0.004425	0.039673	-0.08316	0.019836	0.005341	0.11871	-0.019989	-0.003967	-0.003052	0.097809	-0.14862	-0.014496	-0.004578	0.021362	-0.76584	-0.19363	-0.026855	-0.03418	-0.040588	0.070953	0.09903	-0.21957	0.002594	0.17654	-0.012512	1.0399	-0.084534	-0.017853	-0.013733
5.943	0.025024	0.21561	-0.000458	-0.000916	0.042267	-0.067444	0.021973	0.01236	0.10925	-0.039825	-0.002594	-0.007019	0.048981	-0.12207	-0.007782	-0.012665	0.020752	-0.80093	0.21225	-0.004425	-0.043182	-0.034027	0.029602	0.33752	-0.049591	0.000916	-0.095978	-0.007629	1.0448	-0.011749	-0.012512	-0.008545
5.944	0.003967	0.21042	0.002441	0.003967	0.025177	-0.028381	0.028992	0.005341	0.12497	-0.041046	0.013885	-0.003967	-0.061951	-0.099335	-0.009766	0.006561	-0.007629	-0.84488	-0.28931	0.08316	-0.029449	-0.000763	-0.045166	0.50156	0.17181	0.001221	0.063782	-0.012665	0.12207	0.052643	-0.016937	-0.007935
5.945	0.010681	0.19592	0.052948	0.00885	0.035706	0.007782	0.034027	0.000305	0.11108	-0.037384	0.010986	-0.000763	-0.009766	-0.097351	-0.002136	-0.021667	-0.019989	-0.83023	0.31052	0.11978	-0.013428	0.028534	-0.25101	0.51117	0.23285	-0.010529	0.081329	-0.008545	-0.37155	0.025482	-0.016937	-0.009155
5.946	0.014191	0.16632	0.039825	0.019989	-0.010529	0.030823	0.027008	0.006104	0.097809	-0.049133	0.003204	-0.000763	-0.07782	-0.043182	0.000458	-0.007629	-0.016327	-0.81314	1.2639	0.035248	-0.010986	0.010223	-0.42908	0.18478	0.039215	-0.009155	-0.040436	-0.003357	-1.3268	-0.054016	-0.010223	-0.005951
5.947	0.00824	0.15305	0.031891	0.013733	-0.040436	0.015106	0.019073	0.008698	0.099945	-0.034332	0.00946	0.003662	-0.002899	-0.021057	-0.013275	-0.012054	-0.012512	-0.82977	1.0196	-0.080872	-0.018616	0.005646	-0.36652	0.037842	0.05127	-0.005646	0.1387	-0.003357	0.15167	-0.080566	-0.01236	0.000763
5.948	0.004425	0.14511	-0.015259	0.004883	-0.037079	0.050049	0.028076	0.010529	0.090485	-0.041199	0.015717	-0.003967	0.024109	-0.019836	-0.00885	-0.008392	0.02182	-0.8754	-0.12283	-0.10422	-0.045319	-0.029907	-0.21484	-0.063171	0.095367	-0.008545	0.46204	-0.00946	0.70969	-0.099792	-0.017548	-0.004578
5.949	-0.001678	0.16525	0.001221	-0.003967	-0.027008	0.021057	0.024109	0.014496	0.080566	-0.039673	0.008087	-0.002441	0.02533	-0.026855	0.001678	-0.004578	0.036316	-0.8429	-0.56122	-0.10178	-0.046997	-0.039215	-0.070038	-0.091095	0.046387	-0.00824	0.59998	-0.002899	0.20783	-0.11475	-0.009155	-0.004578
5.95	-0.017548	0.14374	-0.011444	0.013885	-0.060883	0.026093	0.017548	0.014496	0.079651	-0.030975	-0.000458	0.001526	0.018158	-0.0177	0.010376	0.00061	0.026855	-0.81329	-0.44479	-0.032349	-0.046539	-0.015564	-0.034637	0.078888	-0.031433	-0.009155	0.6424	-0.005341	-0.24826	-0.022278	-0.012512	-0.000763
5.951	-0.002289	0.18539	-0.009155	0.015564	-0.040131	-0.021667	0.032654	0.008698	0.08194	-0.034485	0.007477	-0.001221	0.013275	-0.039368	0.008545	-0.00946	0.036316	-0.82428	-0.84656	0.112	-0.057983	-0.036011	0.1442	0.068207	-0.13138	-0.009766	0.22766	-0.005341	-0.56	0.00824	-0.013428	-0.000458
5.952	0.010376	0.16556	-0.024109	0.012207	0.002441	-0.10101	0.009918	0.009918	0.091248	-0.044861	-0.001831	-0.003815	0.020599	-0.041504	-0.015259	-0.02121	0.021973	-0.75897	-0.66757	0.23773	-0.049438	-0.011444	0.014496	-0.041504	-0.17914	-0.000458	-0.42374	-0.007782	-0.073547	-0.069733	-0.014648	-0.000153
5.953	0.02121	0.16983	-0.055695	0.025482	0.050659	-0.11932	-0.002594	0.004883	0.095978	-0.035553	0.003204	-0.009918	-0.00351	-0.053253	-0.016632	-0.009918	0.001373	-0.8165	-0.059509	0.14908	-0.026093	0.023804	0.015411	-0.28656	-0.2475	-0.007629	-0.58426	-0.008698	0.81711	0.10239	-0.012665	0
5.954	0.024567	0.14389	-0.11826	-0.00061	0.097198	-0.095367	0.007324	-0.003357	0.091095	-0.047455	-0.001221	-0.002747	-0.01709	-0.079193	-0.011444	0.001068	-0.00412	-0.7933	-0.16037	0.038452	-0.016479	0.01297	0.090942	-0.20233	0.006866	-0.00946	-0.35843	0.003815	1.0141	-0.005035	-0.00885	-0.012207
5.955	0.023041	0.14099	-0.10468	-0.007172	0.080261	-0.073853	0.003357	0.001526	0.077057	-0.0354	-0.00061	-0.005188	0.007629	-0.06897	-0.011597	-0.002747	-0.016937	-0.74417	-0.024109	-0.042725	-0.011139	0.015717	-0.17136	-0.14969	0.11749	-0.002136	-0.059052	-0.006256	-0.3743	-0.097198	-0.011444	-0.012665
